<?xml version="1.0" standalone="no"?>
<!DOCTYPE svg PUBLIC "-//W3C//DTD SVG 20010904//EN"
 "http://www.w3.org/TR/2001/REC-SVG-20010904/DTD/svg10.dtd">
<svg version="1.0" xmlns="http://www.w3.org/2000/svg"
 width="225.000000pt" height="225.000000pt" viewBox="0 0 225.000000 225.000000"
 preserveAspectRatio="xMidYMid meet">

<g transform="translate(0.000000,225.000000) scale(0.100000,-0.100000)"
fill="#000000" stroke="none">
<path d="M895 1970 c10 -11 20 -20 23 -20 3 0 -3 9 -13 20 -10 11 -20 20 -23
20 -3 0 3 -9 13 -20z"/>
<path d="M793 1803 c8 -9 28 -13 48 -11 32 3 32 3 -14 14 -41 9 -46 9 -34 -3z"/>
<path d="M722 1580 c0 -14 2 -19 5 -12 2 6 2 18 0 25 -3 6 -5 1 -5 -13z"/>
<path d="M1634 1549 c-24 -27 -136 -89 -160 -89 -16 0 -17 -2 -4 -10 8 -5 10
-10 4 -10 -5 0 -19 -7 -30 -14 -17 -14 -15 -15 27 -12 36 1 55 9 83 34 20 17
36 38 36 47 0 8 5 15 10 15 6 0 10 -4 10 -10 0 -16 14 -12 38 11 16 14 29 18
45 13 22 -7 22 -6 3 15 -18 20 -20 20 -39 4 -19 -18 -20 -17 -8 5 15 28 10 28
-15 1z"/>
<path d="M683 1535 c-7 -8 -10 -21 -7 -29 4 -10 1 -16 -9 -16 -10 0 -13 -7
-10 -21 3 -11 11 -18 19 -15 8 3 11 0 8 -8 -3 -8 3 -16 15 -19 10 -2 21 -15
23 -28 3 -13 4 6 4 43 -1 38 -4 68 -7 68 -3 0 -10 9 -15 19 -8 16 -11 17 -21
6z"/>
<path d="M955 1505 c-33 -32 -34 -92 -2 -132 13 -15 30 -40 40 -55 18 -29 10
-38 -34 -33 -13 1 -17 0 -7 -2 16 -4 33 -32 24 -40 -2 -3 -18 3 -35 12 -22 11
-43 14 -67 9 -36 -7 -38 -11 -19 -56 6 -15 2 -18 -26 -17 -82 2 -123 13 -136
39 l-13 25 0 -32 c0 -25 6 -36 28 -47 30 -15 120 -36 157 -36 21 0 65 -30 65
-44 0 -3 14 -26 32 -52 17 -26 39 -76 49 -112 17 -64 17 -67 -2 -116 -25 -61
-19 -126 12 -126 23 0 25 -27 4 -54 -19 -25 -19 -36 -1 -36 8 0 12 -9 11 -25
-3 -19 1 -25 16 -25 11 0 17 -4 14 -10 -3 -5 -16 -10 -29 -10 -30 0 -37 -9
-26 -30 16 -29 -15 -32 -41 -4 -12 13 -27 24 -32 24 -6 0 -1 -10 11 -23 14
-15 19 -30 15 -45 -7 -27 -13 -27 -45 -2 -14 10 -28 17 -31 13 -5 -5 -47 19
-97 55 -2 1 1 12 8 22 10 16 9 23 -5 38 -10 9 -25 29 -34 42 -9 14 -21 21 -25
17 -5 -4 -2 -12 5 -16 18 -11 -9 -53 -45 -69 -34 -16 -34 -16 -34 13 0 30 -4
31 -37 5 -22 -17 -23 -21 -9 -26 13 -5 10 -10 -16 -24 -64 -34 -45 -84 19 -52
21 11 61 23 88 27 28 4 56 15 64 24 12 14 13 14 8 0 -3 -10 12 -30 44 -58 34
-30 49 -50 49 -67 0 -14 4 -22 10 -19 5 3 7 0 4 -8 -2 -7 0 -26 5 -40 13 -34
41 -36 41 -3 0 34 14 40 49 21 41 -21 73 -19 105 6 l28 22 88 -28 c53 -16 98
-24 110 -20 39 12 58 119 23 128 -17 4 -17 5 0 6 11 1 17 9 17 25 0 40 -32
125 -49 129 -14 4 -13 5 2 6 19 1 23 26 6 36 -6 4 -8 14 -5 22 9 21 -4 38 -16
22 -8 -11 -11 -12 -15 -1 -3 7 -29 24 -58 36 -68 31 -78 46 -22 35 58 -11 61
-11 47 6 -7 8 -9 15 -5 15 4 0 2 7 -5 15 -7 8 -27 15 -44 15 -45 0 -77 11 -69
23 4 7 -8 8 -35 3 -49 -7 -52 1 -21 50 17 29 18 34 5 34 -18 0 -21 15 -6 25 6
4 17 23 26 43 14 34 14 38 -2 49 -24 18 -41 16 -49 -4 -6 -17 -7 -17 -16 -1
-6 10 -6 26 0 41 9 22 7 24 -12 20 -21 -5 -21 -5 -6 12 16 16 16 20 -3 51 -17
30 -19 38 -8 64 14 35 18 34 143 -11 51 -19 84 -26 94 -20 12 6 5 13 -31 30
-25 13 -46 27 -46 32 0 13 24 11 38 -3 9 -9 12 -7 12 10 0 38 36 22 42 -18 l4
-25 16 31 c10 17 31 37 48 44 16 7 30 17 30 22 0 5 5 6 12 2 7 -4 8 -3 4 4 -5
8 -13 8 -31 0 -21 -9 -27 -7 -47 17 -20 23 -29 26 -56 20 -18 -3 -30 -10 -27
-14 2 -5 -7 -13 -20 -19 -14 -7 -25 -17 -25 -24 0 -8 -12 -13 -30 -13 -17 0
-28 4 -25 10 3 6 8 18 11 27 3 10 14 20 23 23 13 4 15 15 13 50 -2 25 -7 45
-12 45 -4 0 -19 18 -34 40 -24 37 -30 40 -72 40 -34 0 -51 -6 -69 -25z m260
-303 c-3 -3 -11 0 -18 7 -9 10 -8 11 6 5 10 -3 15 -9 12 -12z"/>
<path d="M1441 1379 c-63 -42 -65 -48 -6 -14 55 31 74 45 60 45 -6 0 -30 -14
-54 -31z"/>
<path d="M735 1335 c4 -22 7 -55 7 -72 2 -34 6 -38 23 -25 6 4 2 30 -13 72
-18 52 -22 57 -17 25z"/>
</g>
</svg>
