<?xml version="1.0" standalone="no"?>
<!DOCTYPE svg PUBLIC "-//W3C//DTD SVG 20010904//EN"
 "http://www.w3.org/TR/2001/REC-SVG-20010904/DTD/svg10.dtd">
<svg version="1.0" xmlns="http://www.w3.org/2000/svg"
 width="243.000000pt" height="208.000000pt" viewBox="0 0 243.000000 208.000000"
 preserveAspectRatio="xMidYMid meet">
<metadata>
Created by potrace 1.16, written by Peter Selinger 2001-2019
</metadata>
<g transform="translate(0.000000,208.000000) scale(0.100000,-0.100000)"
fill="#000000" stroke="none">
<path d="M1168 1418 c-27 -24 -73 -110 -103 -193 -10 -27 -25 -57 -32 -67 -10
-11 -11 -18 -4 -23 6 -3 11 -16 11 -28 0 -28 46 -67 80 -67 26 0 28 -3 32 -57
4 -40 1 -61 -8 -71 -21 -20 -17 -25 17 -20 25 4 33 0 45 -23 8 -15 14 -37 14
-47 0 -20 -29 -52 -48 -52 -7 0 -12 -4 -12 -8 0 -5 -20 -23 -44 -40 l-44 -32
19 -39 c10 -22 29 -47 41 -55 19 -14 20 -16 5 -22 -10 -3 -30 -3 -45 1 -35 9
-76 9 -137 -3 l-50 -10 48 -1 c26 0 47 -5 47 -11 0 -5 -3 -9 -7 -9 -33 5 -39
-5 -8 -12 60 -12 205 -11 205 2 0 5 5 7 10 4 14 -9 90 4 90 15 0 5 -12 15 -27
22 -37 18 -47 39 -39 80 9 47 39 85 82 103 46 19 51 39 24 94 -17 34 -24 67
-26 124 -3 86 7 126 43 173 25 34 30 83 11 103 -11 10 -10 11 2 6 9 -3 25 4
37 15 12 11 29 20 38 20 19 0 19 -1 -4 53 -10 24 -27 47 -36 51 -32 12 -65 6
-77 -14 -18 -28 -31 -25 -24 4 14 55 -76 78 -126 34z"/>
</g>
</svg>
